<svg xmlns="http://www.w3.org/2000/svg" viewBox="0 0 48 48">
  <path fill="#EA4335" d="M24 9.5c3.54 0 6.06 1.53 7.45 2.8l5.48-5.48C33.6 3.88 29.28 2 24 2 14.82 2 6.96 7.94 3.69 16.5l6.56 5.09C12.01 14.45 17.56 9.5 24 9.5z"/>
  <path fill="#4285F4" d="M46.5 24c0-1.64-.15-3.21-.43-4.73H24v9h12.7c-.55 2.9-2.2 5.36-4.67 7.04l7.24 5.63C43.58 36.44 46.5 30.74 46.5 24z"/>
  <path fill="#FBBC05" d="M10.25 28.59a14.5 14.5 0 0 1 0-9.18l-6.56-5.09A23.96 23.96 0 0 0 2 24c0 3.87.93 7.52 2.69 10.68l6.56-5.09z"/>
  <path fill="#34A853" d="M24 46c5.28 0 9.7-1.74 12.93-4.73l-7.24-5.63c-2.02 1.36-4.6 2.16-5.69 2.16-6.44 0-11.99-4.95-13.75-11.59l-6.56 5.09C6.96 40.06 14.82 46 24 46z"/>
</svg>
